<svg version="1.1" id="Layer_1" xmlns="http://www.w3.org/2000/svg" xmlns:xlink="http://www.w3.org/1999/xlink" x="0px" y="0px" viewBox="0 0 500 500" xml:space="preserve" data-imageid="money-transfer-3-4" imageName="Money Transfer 3" class="illustrations_image">
<style type="text/css">
	.st0_money-transfer-3-4{fill:#FFFFFF;}
	.st1_money-transfer-3-4{fill:#231F20;}
	.st2_money-transfer-3-4{fill:#68E1FD;}
	.st3_money-transfer-3-4{fill:#D1D3D4;}
</style>
<g id="Screen_2_money-transfer-3-4">
	<rect x="265.5" y="183" class="st0_money-transfer-3-4" width="194.1" height="208.1"/>
	<path class="st1_money-transfer-3-4" d="M459.5,391.8H265.5c-0.4,0-0.7-0.3-0.7-0.7v0V183c0-0.4,0.3-0.7,0.7-0.7l0,0h194.1c0.4,0,0.7,0.3,0.7,0.7&#10;&#9;&#9;c0,0,0,0,0,0v208.1C460.2,391.5,459.9,391.8,459.5,391.8L459.5,391.8z M266.2,390.4h192.7V183.7H266.2L266.2,390.4z"/>
	<rect x="265.5" y="183" class="st0_money-transfer-3-4" width="194.1" height="23.1"/>
	<path class="st1_money-transfer-3-4" d="M459.5,206.7H265.5c-0.4,0-0.7-0.3-0.7-0.7c0,0,0,0,0,0v-23c0-0.4,0.3-0.7,0.7-0.7l0,0h194.1&#10;&#9;&#9;c0.4,0,0.7,0.3,0.7,0.7c0,0,0,0,0,0v23C460.3,206.4,459.9,206.7,459.5,206.7C459.6,206.7,459.6,206.7,459.5,206.7z M266.2,205.3&#10;&#9;&#9;h192.7v-21.7H266.2L266.2,205.3z"/>
	<circle class="st2_money-transfer-3-4 targetColor" cx="275.8" cy="194.1" r="3" style="fill: rgb(213, 242, 255);"/>
	<circle class="st3_money-transfer-3-4" cx="286.5" cy="194.1" r="3"/>
	<circle class="st3_money-transfer-3-4" cx="297.1" cy="194.1" r="3"/>
	<path class="st3_money-transfer-3-4" d="M437.2,337.3h-24.8c-0.4,0-0.7-0.3-0.7-0.7s0.3-0.7,0.7-0.7c0,0,0,0,0,0h24.8c0.4,0,0.7,0.3,0.7,0.7&#10;&#9;&#9;C437.9,336.9,437.6,337.3,437.2,337.3z"/>
	<path class="st3_money-transfer-3-4" d="M428,352h-15.6c-0.4,0-0.7-0.3-0.7-0.7s0.3-0.7,0.7-0.7c0,0,0,0,0,0H428c0.4,0,0.7,0.3,0.7,0.7&#10;&#9;&#9;S428.4,352,428,352C428,352,428,352,428,352z"/>
	<path class="st3_money-transfer-3-4" d="M435.2,375.5h-18.7c-2.6,0-4.8-2.1-4.8-4.8v-3c0-2.6,2.1-4.8,4.8-4.8h18.7c2.6,0,4.8,2.1,4.8,4.8v3&#10;&#9;&#9;C440,373.3,437.8,375.5,435.2,375.5z M416.5,364.2c-1.9,0-3.4,1.5-3.4,3.4v0v3c0,1.9,1.5,3.4,3.4,3.4h0h18.7c1.9,0,3.4-1.5,3.4-3.4&#10;&#9;&#9;v0v-3c0-1.9-1.5-3.4-3.4-3.4h0H416.5z"/>
</g>
<g id="Character_Female_Right_Hand_money-transfer-3-4">
	<path class="st0_money-transfer-3-4" d="M350.3,296.7c0,0-43.3,6.2-49.1,0s-19.1-41.4-19.1-41.4L266.6,268c0,0,11.6,66,31.2,65.6s63.6-16.5,63.6-16.5&#10;&#9;&#9;L350.3,296.7L350.3,296.7z"/>
	<path class="st1_money-transfer-3-4" d="M297.7,334.3c-19.9,0-31.2-63.5-31.7-66.2c0-0.2,0-0.5,0.2-0.7l15.4-12.7c0.2-0.1,0.4-0.2,0.6-0.1&#10;&#9;&#9;c0.2,0.1,0.4,0.2,0.5,0.4c0.1,0.4,13.3,35.2,19,41.2c4.6,4.8,36.5,1.5,48.5-0.2c0.3,0,0.6,0.1,0.7,0.4l11.1,20.5&#10;&#9;&#9;c0.2,0.3,0.1,0.8-0.3,1c0,0-0.1,0-0.1,0c-0.4,0.2-44.3,16.2-63.8,16.5L297.7,334.3L297.7,334.3z M267.4,268.3&#10;&#9;&#9;c1,5.5,12.3,64.6,30.2,64.6h0.1c17.9-0.3,56.6-14,62.6-16.1l-10.5-19.3c-2.2,0.3-11.9,1.6-21.9,2.2c-15.5,1-24.7,0.2-27.3-2.5&#10;&#9;&#9;c-5.4-5.7-16.7-35-18.9-40.7L267.4,268.3L267.4,268.3z"/>
</g>
<g id="Screen_1_money-transfer-3-4">
	<rect x="40.5" y="108.9" class="st0_money-transfer-3-4" width="194.1" height="208.1"/>
	<path class="st1_money-transfer-3-4" d="M234.5,317.7H40.5c-0.4,0-0.7-0.3-0.7-0.7l0,0V108.9c0-0.4,0.3-0.7,0.7-0.7h194.1c0.4,0,0.7,0.3,0.7,0.7V317&#10;&#9;&#9;C235.2,317.4,234.9,317.7,234.5,317.7C234.6,317.7,234.5,317.7,234.5,317.7z M41.1,316.3h192.7V109.6H41.2L41.1,316.3z"/>
	<rect x="40.5" y="108.9" class="st0_money-transfer-3-4" width="194.1" height="23.1"/>
	<path class="st1_money-transfer-3-4" d="M234.5,132.6H40.5c-0.4,0-0.7-0.3-0.7-0.7v-23.1c0-0.4,0.3-0.7,0.7-0.7h194.1c0.4,0,0.7,0.3,0.7,0.7v23&#10;&#9;&#9;C235.2,132.3,234.9,132.6,234.5,132.6C234.5,132.6,234.5,132.6,234.5,132.6z M41.1,131.2h192.7v-21.7H41.2L41.1,131.2z"/>
	<circle class="st2_money-transfer-3-4 targetColor" cx="50.8" cy="120" r="3" style="fill: rgb(213, 242, 255);"/>
	<circle class="st3_money-transfer-3-4" cx="61.4" cy="120" r="3"/>
	<circle class="st3_money-transfer-3-4" cx="72.1" cy="120" r="3"/>
	<path class="st3_money-transfer-3-4" d="M96.9,156H61.4c-0.4,0-0.7-0.3-0.7-0.7c0-0.4,0.3-0.7,0.7-0.7c0,0,0,0,0,0h35.5c0.4,0,0.7,0.3,0.7,0.7&#10;&#9;&#9;C97.6,155.7,97.3,156,96.9,156z"/>
	<path class="st3_money-transfer-3-4" d="M79.2,176H61.4c-0.4,0-0.7-0.3-0.7-0.7c0-0.4,0.3-0.7,0.7-0.7h17.8c0.4,0,0.7,0.3,0.7,0.7&#10;&#9;&#9;C79.9,175.7,79.6,176,79.2,176C79.2,176,79.2,176,79.2,176z"/>
	<path class="st3_money-transfer-3-4" d="M70.3,211.2c-6,0-10.9-4.9-10.9-10.9c0-6,4.9-10.8,10.8-10.8c6,0,10.9,4.9,10.9,10.8&#10;&#9;&#9;C81.1,206.4,76.3,211.2,70.3,211.2z M70.3,190.9c-5.2,0-9.5,4.2-9.5,9.4c0,5.2,4.2,9.4,9.4,9.4c5.2,0,9.5-4.2,9.5-9.4l0,0&#10;&#9;&#9;C79.8,195.2,75.5,190.9,70.3,190.9z"/>
	<path class="st3_money-transfer-3-4" d="M70.3,204L70.3,204c-0.3,0-0.4-0.1-0.6-0.3l-4.1-5.6c-0.2-0.3-0.2-0.8,0.2-1c0.3-0.2,0.8-0.2,1,0.1l3.6,4.9&#10;&#9;&#9;l14.2-14c0.3-0.3,0.7-0.3,1,0s0.3,0.7,0,1l-14.8,14.6C70.7,203.9,70.5,204,70.3,204L70.3,204z"/>
</g>
<g id="Character_Male_and_Money_money-transfer-3-4">
	<polygon class="st1_money-transfer-3-4" points="92.1,293.2 87.6,317 161.7,317 157.6,305 &#9;"/>
	<path class="st1_money-transfer-3-4" d="M161.7,317.7H87.6c-0.2,0-0.4-0.1-0.5-0.2c-0.1-0.2-0.2-0.4-0.2-0.6l4.6-23.8c0.1-0.4,0.4-0.6,0.8-0.6&#10;&#9;&#9;l65.5,11.7c0.3,0,0.5,0.2,0.5,0.5l4.1,12.1c0.1,0.4-0.1,0.8-0.4,0.9C161.8,317.7,161.8,317.7,161.7,317.7L161.7,317.7z M88.4,316.3&#10;&#9;&#9;h72.3l-3.6-10.8l-64.4-11.5L88.4,316.3L88.4,316.3z"/>
	<polygon class="st0_money-transfer-3-4" points="186.6,225.9 228.6,276.5 210.1,284.1 165.1,236.2 &#9;"/>
	<path class="st1_money-transfer-3-4" d="M210.1,284.8c-0.2,0-0.4-0.1-0.5-0.2l-45-47.9c-0.2-0.2-0.2-0.4-0.2-0.6c0-0.2,0.2-0.4,0.4-0.5l21.5-10.3&#10;&#9;&#9;c0.3-0.1,0.6-0.1,0.8,0.2l42,50.6c0.1,0.2,0.2,0.4,0.1,0.6c-0.1,0.2-0.2,0.4-0.4,0.5l-18.5,7.6&#10;&#9;&#9;C210.3,284.8,210.2,284.8,210.1,284.8L210.1,284.8z M166.2,236.4l44,46.9l17.2-7l-41.1-49.5L166.2,236.4z"/>
	<polygon class="st2_money-transfer-3-4 targetColor" points="173.9,199.5 195.2,227.3 166.2,243.2 &#9;" style="fill: rgb(213, 242, 255);"/>
	<path class="st2_money-transfer-3-4 targetColor" d="M173.9,199.5c-1.8-2.9-42.1-15.5-55.4-6.2s-27.3,81.5-31,103.8l80.7,20.8C168.2,317.9,183.7,215.4,173.9,199.5&#10;&#9;&#9;L173.9,199.5z" style="fill: rgb(213, 242, 255);"/>
	<path class="st1_money-transfer-3-4" d="M172.3,299.8L172.3,299.8c-0.5,0-0.7-0.4-0.7-0.8c0,0,0,0,0,0c0.1-0.6,7.2-63,4.9-78.6&#10;&#9;&#9;c-0.1-0.4,0.2-0.7,0.6-0.8c0.4-0.1,0.7,0.2,0.8,0.6c2.3,15.8-4.6,76.4-4.9,79C172.9,299.6,172.6,299.8,172.3,299.8L172.3,299.8z"/>
	<path class="st0_money-transfer-3-4" d="M151.6,182.1c-4.4-1.5-8.4-3.4-11.6-7.1c-1.5-1.5-2.4-3.4-2.8-5.4c-0.2-2.1,0.8-4.4,2.8-5&#10;&#9;&#9;c-1.9-1.3-3.1-3.4-3.1-5.8c0-2.3,0.6-4.5,1.7-6.5c1.4-2.6,3.7-5.1,6.7-5.2c-1.1-2.3-2.1-4.9-1.1-7.2c0.6-1.1,1.5-2.1,2.5-2.8&#10;&#9;&#9;c2-1.5,4.1-2.9,6.3-4c1.2-0.6,2.7-1.1,3.8-0.3c1.3-4.7,5.2-8.3,10.1-9.2c2.3-0.5,4.8-0.2,6.9,0.9c0.7,0.3,5.9,4.9,5.6,4.9&#10;&#9;&#9;c3.4-1,8.9-0.1,11.4,2.5c2.2,2.4,3,5.7,2,8.8c2.5,1.4,4.6,3.3,6.3,5.6c1.7,2.3,2.2,5.3,1.4,8.1c-0.9,2.7-3.6,4.8-6.4,4.4&#10;&#9;&#9;c2.4,2.5,2.5,6.4,0.3,9c-2.3,2.5-5.8,3.4-9,2.2c-0.4-0.2-0.9-0.3-1.3-0.3c-0.5,0.2-1,0.5-1.4,0.9c-1.5,1.1-3.2,0.7-4.8,1.4&#10;&#9;&#9;c-2.1,0.9-4.1,2.9-6,4.1c-1.9,1.3-3.9,2.5-6,3.6c-2.3,1.2-4.4,3.1-7,3.9c-2.2,0.7-3.5-0.3-5.6-1L151.6,182.1L151.6,182.1z"/>
	<path class="st1_money-transfer-3-4" d="M157.3,184.5c-1,0-2.1-0.3-3-0.7c-0.4-0.2-0.9-0.3-1.4-0.5l-1.6-0.5l0,0c-3.8-1.3-8.2-3.2-11.9-7.3&#10;&#9;&#9;c-1.6-1.6-2.6-3.6-2.9-5.8c-0.2-2,0.6-4,2.2-5.2c-1.5-1.5-2.5-3.5-2.5-5.6c0-2.4,0.6-4.8,1.8-6.9c0.8-1.5,2.9-4.8,6.2-5.4&#10;&#9;&#9;c-1-2.2-1.7-4.7-0.7-6.9c0.7-1.2,1.6-2.2,2.7-3c2-1.6,4.1-2.9,6.4-4.1c1.1-0.7,2.4-0.9,3.6-0.7c1.6-4.6,5.6-8,10.4-8.9&#10;&#9;&#9;c2.5-0.5,5.1-0.1,7.4,1c2,1.5,3.8,3.1,5.6,4.8c3.5-0.8,9,0.1,11.7,2.8c2.3,2.4,3.2,5.8,2.3,9c2.4,1.4,4.4,3.3,6,5.5&#10;&#9;&#9;c1.8,2.5,2.3,5.7,1.5,8.7c-0.8,2.5-3,4.4-5.6,4.9c1.7,2.8,1.4,6.2-0.6,8.7c-2.5,2.7-6.3,3.7-9.8,2.4h-0.1c-0.3-0.1-0.6-0.2-0.9-0.2&#10;&#9;&#9;c-0.3,0.1-0.6,0.3-0.8,0.5l-0.3,0.2c-0.9,0.6-1.9,0.9-3,1c-0.6,0.1-1.3,0.2-1.9,0.5c-1.4,0.7-2.8,1.6-4,2.7c-0.6,0.5-1.3,1-1.9,1.4&#10;&#9;&#9;c-2,1.3-4,2.5-6.1,3.7c-0.8,0.4-1.5,0.9-2.3,1.4c-1.5,1.1-3.1,1.9-4.8,2.5C158.4,184.5,157.8,184.6,157.3,184.5z M155.4,133&#10;&#9;&#9;c-0.8,0.1-1.5,0.3-2.1,0.7c-2.2,1.1-4.2,2.4-6.2,3.9c-1,0.6-1.8,1.5-2.3,2.5c-0.9,2,0.1,4.5,1.1,6.7c0.1,0.2,0.1,0.5,0,0.7&#10;&#9;&#9;c-0.1,0.2-0.3,0.3-0.6,0.3c-3.2,0.1-5.3,3.4-6.1,4.8c-1.1,1.9-1.7,4-1.6,6.1c0,2.1,1.1,4,2.8,5.2c0.2,0.1,0.4,0.4,0.3,0.7&#10;&#9;&#9;c0,0.3-0.2,0.5-0.5,0.6c-1.7,0.6-2.5,2.7-2.3,4.3c0.3,1.9,1.2,3.6,2.6,5c3.4,3.9,7.6,5.7,11.3,6.9l0,0l1.6,0.5&#10;&#9;&#9;c0.5,0.2,1,0.4,1.5,0.5c1.1,0.6,2.5,0.8,3.7,0.4c1.6-0.6,3.1-1.4,4.5-2.4c0.8-0.5,1.6-1,2.4-1.4c2.1-1.1,4.1-2.3,6-3.6&#10;&#9;&#9;c0.6-0.4,1.2-0.9,1.9-1.4c1.3-1.1,2.7-2,4.2-2.8c0.7-0.3,1.5-0.5,2.2-0.6c0.9-0.1,1.7-0.3,2.4-0.8l0.2-0.2c0.4-0.4,1-0.7,1.5-0.8&#10;&#9;&#9;c0.5,0,1,0.1,1.5,0.3h0.1c2.9,1.1,6.1,0.3,8.2-2c1.9-2.3,1.8-5.8-0.2-8c-0.2-0.2-0.3-0.5-0.1-0.8c0.1-0.3,0.4-0.4,0.7-0.4&#10;&#9;&#9;c2.6,0.1,4.9-1.5,5.7-4c0.7-2.6,0.2-5.3-1.3-7.4c-1.6-2.2-3.6-4.1-6-5.4c-0.3-0.2-0.4-0.5-0.3-0.8c0.9-2.8,0.2-5.9-1.9-8.1&#10;&#9;&#9;c-2.4-2.4-7.6-3.3-10.7-2.4l0,0c-0.4,0.1-0.7-0.1-0.9-0.4c-1.7-1.6-3.4-3.2-5.3-4.6c-2-1-4.3-1.3-6.5-0.8c-4.6,0.9-8.2,4.2-9.5,8.6&#10;&#9;&#9;c-0.1,0.2-0.2,0.4-0.4,0.5c-0.2,0.1-0.5,0-0.7-0.1c-0.3-0.2-0.6-0.3-0.9-0.3L155.4,133z"/>
	<path class="st0_money-transfer-3-4" d="M183.8,171.5c0,0,3.2,11.2,1.3,12.7s-5.6-1.1-5.6-1.1"/>
	<path class="st1_money-transfer-3-4" d="M183.6,185.3c-1.6-0.2-3.2-0.7-4.6-1.7c-0.3-0.2-0.5-0.6-0.3-1c0.2-0.3,0.6-0.5,1-0.3c0,0,0.1,0,0.1,0.1&#10;&#9;&#9;c0.9,0.6,3.6,2.1,4.8,1.1c0.9-0.7-0.1-6.8-1.5-11.9c-0.1-0.4,0-0.8,0.4-0.9c0.4-0.1,0.8,0,0.9,0.4c0,0,0,0.1,0,0.1&#10;&#9;&#9;c0.8,2.7,3.1,11.7,1,13.4C184.9,185.1,184.2,185.3,183.6,185.3L183.6,185.3z"/>
	<path class="st0_money-transfer-3-4" d="M188.2,150.7c0.5,0.5,0.8,1.2,0.8,1.9c0.3,2.5,0.1,5-0.5,7.4c-1,4.7-2.4,9.4-4,14c-2,6.1-4.1,12.2-6.4,18.2&#10;&#9;&#9;c-1.4,3.8-11.5,0.7-12.9-1l-3.3,15.8c0,0-5.2-0.2-12.1-6.6s-6.4-8.3-6.4-8.3l6.3-17.5c0,0,6.6,2.2,13.1-4.5c1-1.1,1.9-3,3.1-3.8&#10;&#9;&#9;c1.5-1,3.2-0.8,4.5-2.2c1.2-1.4,1.7-3.3,1.3-5.1c-0.1-0.4-0.2-0.9,0.1-1.1c0.2-0.1,0.4-0.2,0.7-0.2c2.7-0.5,4.5-3.1,4.1-5.8&#10;&#9;&#9;c0,0,0,0,0-0.1c2.5,0.8,5-1.2,7-3.1c-0.6,0.6,3.9,1.4,4,1.5c0.3,0.1,0.6,0.3,0.8,0.5L188.2,150.7z"/>
	<path class="st1_money-transfer-3-4" d="M161.9,207.6L161.9,207.6c-0.2,0-5.6-0.3-12.6-6.7c-6.7-6.1-6.7-8.4-6.6-9l6.3-17.5c0.1-0.4,0.5-0.5,0.9-0.4&#10;&#9;&#9;c0.2,0.1,6.3,1.9,12.4-4.3c0.4-0.5,0.8-1,1.1-1.5c0.5-0.9,1.3-1.7,2.1-2.4c0.6-0.4,1.3-0.7,2.1-0.9c0.9-0.2,1.7-0.6,2.3-1.2&#10;&#9;&#9;c1.1-1.2,1.5-2.9,1.2-4.5c-0.2-0.6-0.1-1.3,0.3-1.8c0.3-0.2,0.6-0.4,1-0.4c1.2-0.2,2.2-0.8,2.8-1.8c0.7-0.9,0.9-2.1,0.7-3.2&#10;&#9;&#9;c-0.1-0.2,0-0.5,0.2-0.7c0.2-0.2,0.4-0.2,0.7-0.1c2.2,0.7,4.5-1.2,6.3-2.9l0,0c0.3-0.3,0.7-0.3,1,0c0.1,0.1,0.2,0.2,0.2,0.3&#10;&#9;&#9;c1,0.4,2.1,0.7,3.2,0.9l0.3,0.1c0.4,0.1,0.7,0.3,1,0.6l0,0c0.6,0.6,0.9,1.4,1,2.3c0.5,2.6-0.1,5.4-0.5,7.6&#10;&#9;&#9;c-0.9,4.3-2.1,8.6-3.6,12.8l-0.4,1.3c-2,6.1-4.1,12.2-6.4,18.2c-0.5,1.3-1.7,2.1-3.1,2.2c-3.1,0.5-7.8-0.9-10-2.2l-3.1,14.7&#10;&#9;&#9;C162.5,207.4,162.2,207.6,161.9,207.6L161.9,207.6z M144,192.3c0,0,0.2,2,6.2,7.5c5.3,4.9,9.6,6,11.1,6.3l3.2-15.2&#10;&#9;&#9;c0.1-0.3,0.3-0.5,0.5-0.5c0.3-0.1,0.5,0,0.7,0.2c0.8,1,6.2,3,9.7,2.5c1.1-0.2,1.8-0.6,2-1.3c2.3-6,4.4-12.1,6.4-18.1l0.4-1.3&#10;&#9;&#9;c1.5-4.1,2.6-8.3,3.6-12.6c0.6-2.3,0.7-4.7,0.5-7.1c0-0.5-0.2-1.1-0.6-1.5c-0.2-0.1-0.4-0.3-0.6-0.4H187c-1.3-0.2-2.5-0.6-3.7-1.1&#10;&#9;&#9;c-1.7,1.6-3.8,3.1-6.1,2.9c0,1.2-0.3,2.3-1,3.3c-0.9,1.3-2.2,2.1-3.7,2.4c-0.1,0-0.2,0-0.3,0c0.1,0.1,0.1,0.3,0.1,0.4&#10;&#9;&#9;c0.4,2-0.1,4.2-1.5,5.7c-0.8,0.8-1.8,1.4-2.9,1.6c-0.6,0.2-1.2,0.4-1.7,0.7c-0.7,0.6-1.3,1.2-1.7,2c-0.4,0.6-0.8,1.1-1.3,1.7&#10;&#9;&#9;c-5.6,5.7-11.2,5.2-13.1,4.8L144,192.3L144,192.3L144,192.3z"/>
	<path class="st0_money-transfer-3-4" d="M167.8,168.2c0.3-1.6,0.2-3.2-0.4-4.8c-0.3-1.2-0.7-2.4-1.3-3.5c-0.6-1.1-1.7-1.9-3-2.1&#10;&#9;&#9;c-1.1-0.1-2.2,0.4-3,1.1c-0.8,0.8-1.4,1.7-1.7,2.8c-1.7,4.6-0.8,9.8,2.4,13.6c-0.1-0.2-0.1-0.3-0.2-0.5"/>
	<path class="st1_money-transfer-3-4" d="M160.7,176.1c-0.2,0-0.4-0.1-0.5-0.2c-3.3-4-4.2-9.4-2.5-14.3c0.4-1.2,1-2.2,1.9-3.1c0.9-0.9,2.2-1.4,3.6-1.3&#10;&#9;&#9;c1.5,0.2,2.8,1.1,3.5,2.4c0.7,1.1,1.1,2.4,1.4,3.7c0.6,1.6,0.7,3.4,0.4,5.1c-0.1,0.4-0.5,0.6-0.8,0.5c-0.4-0.1-0.6-0.5-0.5-0.8&#10;&#9;&#9;c0,0,0,0,0-0.1c0.3-1.5,0.1-3-0.4-4.4c-0.3-1.2-0.7-2.3-1.2-3.3c-0.5-0.9-1.4-1.6-2.5-1.7c-0.9,0-1.8,0.3-2.4,0.9&#10;&#9;&#9;c-0.7,0.7-1.2,1.6-1.6,2.5c-1.5,4.1-0.9,8.7,1.7,12.2c0.2,0.1,0.3,0.2,0.4,0.4l0.2,0.5c0.1,0.3,0,0.7-0.2,0.9&#10;&#9;&#9;C161,176.1,160.9,176.1,160.7,176.1L160.7,176.1z"/>
	<path class="st1_money-transfer-3-4" d="M165.2,191.1c0,0-4.7-3.3-6-7.6c0,0-2.6,9.4,4.5,14.7L165.2,191.1z"/>
	<path class="st1_money-transfer-3-4" d="M163.7,198.9c-0.1,0-0.3,0-0.4-0.1c-7.4-5.5-4.8-15.3-4.8-15.4c0.1-0.3,0.4-0.5,0.7-0.5c0.3,0,0.6,0.2,0.7,0.5&#10;&#9;&#9;c1.2,4.1,5.7,7.2,5.7,7.2c0.2,0.2,0.3,0.4,0.3,0.7l-1.5,7.1c0,0.2-0.2,0.4-0.4,0.5C163.9,198.8,163.8,198.9,163.7,198.9&#10;&#9;&#9;L163.7,198.9z M159.5,186c-0.2,2.8,0,7.6,3.7,10.9l1.1-5.5C162.5,190,160.8,188.1,159.5,186z"/>
	<ellipse transform="matrix(0.3389 -0.9408 0.9408 0.3389 -35.573 279.2813)" class="st1_money-transfer-3-4" cx="180.9" cy="165" rx="2.3" ry="0.9"/>
	<path class="st0_money-transfer-3-4" d="M179.4,183l-6-4.8c0,0-4.6,7.6-2.4,11.6S177.9,187,179.4,183L179.4,183z"/>
	<path class="st1_money-transfer-3-4" d="M172.8,191.8c-1,0-1.9-0.6-2.3-1.6c-2.5-4.3,2.2-12,2.4-12.3c0.1-0.2,0.3-0.3,0.5-0.3c0.2,0,0.4,0,0.6,0.1&#10;&#9;&#9;l6,4.8c0.2,0.2,0.3,0.5,0.2,0.8c-0.9,2.6-4.1,8.2-7.1,8.5L172.8,191.8L172.8,191.8z M173.6,179.3c-1,1.9-3.6,7.2-1.9,10.2&#10;&#9;&#9;c0.5,0.8,0.9,0.9,1.2,0.9c1.7-0.1,4.3-3.8,5.7-7.1L173.6,179.3L173.6,179.3z"/>
	
		<rect x="140.7" y="244.2" transform="matrix(0.7936 -0.6085 0.6085 0.7936 -129.4061 198.1832)" class="st0_money-transfer-3-4" width="173.4" height="91.2"/>
	<path class="st1_money-transfer-3-4" d="M186.3,379.5c-0.2,0-0.4-0.1-0.6-0.3l-55.5-72.3c-0.1-0.1-0.2-0.3-0.1-0.5c0-0.2,0.1-0.4,0.3-0.5L268,200.3&#10;&#9;&#9;c0.3-0.2,0.7-0.2,1,0.1c0,0,0,0,0,0l55.5,72.3c0.1,0.1,0.2,0.3,0.1,0.5c0,0.2-0.1,0.4-0.3,0.5L186.7,379.3&#10;&#9;&#9;C186.6,379.4,186.4,379.5,186.3,379.5L186.3,379.5z M131.8,306.6l54.6,71.2L323,273.1l-54.6-71.2L131.8,306.6L131.8,306.6z"/>
	<path class="st3_money-transfer-3-4" d="M198,356.5h-0.1c-0.2,0-0.4-0.1-0.5-0.3c-0.1-0.1-0.2-0.3-0.3-0.4c-4.7-6.1-13.5-7.3-19.6-2.6&#10;&#9;&#9;c-0.3,0.2-0.7,0.2-1-0.1c0,0,0,0,0,0l-23.4-30.5c-0.2-0.3-0.2-0.7,0.1-1c0,0,0,0,0,0c6.1-4.7,7.3-13.4,2.6-19.6&#10;&#9;&#9;c-0.1-0.1-0.2-0.3-0.3-0.4c-0.1-0.1-0.2-0.3-0.2-0.5c0-0.2,0.1-0.4,0.3-0.5l100.7-77.3c0.3-0.2,0.8-0.2,1,0.2c0,0,0,0,0,0&#10;&#9;&#9;c0.1,0.1,0.2,0.3,0.3,0.4c4.7,6.1,13.5,7.3,19.6,2.6c0.1-0.1,0.3-0.2,0.5-0.1c0.2,0,0.4,0.1,0.5,0.3l23.4,30.5&#10;&#9;&#9;c0.2,0.3,0.2,0.7-0.1,1c0,0,0,0,0,0c-6.1,4.7-7.3,13.5-2.6,19.6c0.1,0.1,0.2,0.3,0.3,0.4c0.1,0.1,0.2,0.3,0.2,0.5&#10;&#9;&#9;c0,0.2-0.1,0.4-0.3,0.5l-100.7,77.2C198.3,356.4,198.2,356.5,198,356.5L198,356.5z M186,348.9c4.7,0,9.2,2.2,12.1,5.9l99.6-76.4&#10;&#9;&#9;c-4.9-6.5-3.9-15.7,2.4-21L277.6,228c-6.7,4.7-15.9,3.3-20.9-3.2l-99.6,76.4c4.9,6.5,3.9,15.8-2.4,21l22.5,29.4&#10;&#9;&#9;C179.8,349.8,182.9,348.8,186,348.9L186,348.9z"/>
	<path class="st0_money-transfer-3-4" d="M153.8,240.8c0,0,42.8,52.2,50.5,54.1s20.5-0.4,19.6,3.7s-13.2,4.1-13.2,4.1s15.1,6.6,13.2,11s-9,8.1-15.4,5.3&#10;&#9;&#9;s-10-7.5-15.5-10.2s-57.9-51.1-57.9-51.1L153.8,240.8L153.8,240.8z"/>
	<path class="st1_money-transfer-3-4" d="M213.2,320.7c-1.7,0-3.4-0.3-4.9-1c-3.2-1.5-6.1-3.4-8.8-5.7c-2.1-1.8-4.3-3.3-6.8-4.6&#10;&#9;&#9;c-5.6-2.7-55.9-49.3-58-51.2c-0.1-0.1-0.2-0.3-0.2-0.5c0-0.2,0.1-0.4,0.2-0.5l18.6-16.8c0.1-0.1,0.3-0.2,0.5-0.2&#10;&#9;&#9;c0.2,0,0.4,0.1,0.5,0.2c11.9,14.5,44,52.4,50.1,53.8c3.3,0.6,6.6,0.9,10,0.9c4.7,0.1,8.4,0.2,9.7,1.8c0.4,0.5,0.5,1.2,0.4,1.8&#10;&#9;&#9;c-0.7,3.3-7.1,4.2-10.9,4.5c4.6,2.3,12.6,6.9,11,10.7c-1.3,2.6-3.5,4.7-6.3,5.7C216.7,320.3,215,320.7,213.2,320.7L213.2,320.7z&#10;&#9;&#9; M136.2,257.7c5.7,5.2,52,48,57.1,50.5c2.5,1.3,4.8,2.9,7,4.8c2.6,2.2,5.4,4.1,8.5,5.5c2.8,1.2,6,1.2,8.9,0c2.4-0.9,4.4-2.6,5.6-5&#10;&#9;&#9;c1.1-2.6-6.9-7.5-12.9-10.1c-0.3-0.1-0.5-0.5-0.4-0.8c0.1-0.3,0.3-0.6,0.7-0.6c4.5,0,11.9-1,12.5-3.5c0.1-0.2,0-0.5-0.1-0.6&#10;&#9;&#9;c-0.8-1.1-4.8-1.2-8.6-1.3c-3.5,0-6.9-0.3-10.3-0.9c-7.5-1.8-45.5-47.8-50.4-53.8L136.2,257.7L136.2,257.7z"/>
	<polyline class="st2_money-transfer-3-4 targetColor" points="139.4,214.4 157,237.4 132,260.5 117,243.2 &#9;" style="fill: rgb(213, 242, 255);"/>
	<path class="st1_money-transfer-3-4" d="M132,261.2L132,261.2c-0.2,0-0.4-0.1-0.5-0.2l-15-17.3c-0.3-0.3-0.2-0.7,0.1-1c0.3-0.3,0.7-0.2,1,0.1&#10;&#9;&#9;l14.5,16.7l24-22.1l-17.2-22.5c-0.1-0.4,0-0.8,0.4-0.9c0.2-0.1,0.5-0.1,0.7,0.1l17.6,23c0.2,0.3,0.2,0.7-0.1,0.9l-25,23&#10;&#9;&#9;C132.4,261.1,132.2,261.1,132,261.2L132,261.2z"/>
</g>
<g id="Character_Female_money-transfer-3-4">
	<path class="st0_money-transfer-3-4" d="M397.9,245.7c4.1,0.3,8.2,1.4,11.9,3.3c6.4,3.1,12.6,8.2,14.1,15.1c1.2,5.7-1,11.5-3.7,16.6s-6.1,10-7.6,15.6&#10;&#9;&#9;s-0.8,12.3,3.6,16c-5.8-2.6-11.8-5.3-16.5-9.6c-2.8-2.5-5.1-5.8-5.4-9.5c-0.2-3.1,1-6,2.2-8.9c1.8-4.2,3.7-8.5,4-13&#10;&#9;&#9;s-1.4-9.5-5.4-11.9c-3.5-2-14.7-1.8-13-8.1C383.5,246.5,393.9,245.6,397.9,245.7L397.9,245.7z"/>
	<path class="st1_money-transfer-3-4" d="M416.1,313.1c-0.1,0-0.2,0-0.3-0.1c-5.8-2.6-11.8-5.3-16.7-9.7c-3.4-3.1-5.4-6.6-5.6-10&#10;&#9;&#9;c-0.2-3.1,0.9-6.1,2.2-9.2l0.2-0.6c1.7-3.9,3.4-8,3.7-12.2c0.3-4.9-1.7-9.2-5-11.2c-1.4-0.6-2.9-1.1-4.4-1.4&#10;&#9;&#9;c-3.3-0.8-7.1-1.7-8.5-4.1c-0.6-1.1-0.7-2.4-0.3-3.5c1.5-5.5,12.4-6.4,16.5-6.2c4.2,0.3,8.4,1.4,12.2,3.4&#10;&#9;&#9;c4.6,2.2,12.7,7.2,14.4,15.6c1,4.9-0.2,10.3-3.8,17.1c-0.7,1.3-1.5,2.6-2.2,3.9c-2.1,3.6-4.2,7.4-5.4,11.5&#10;&#9;&#9;c-1.3,4.7-1.2,11.5,3.4,15.3c0.3,0.2,0.3,0.7,0.1,1C416.6,313,416.4,313.1,416.1,313.1L416.1,313.1z M397,246.4&#10;&#9;&#9;c-4.7,0-13.1,1.2-14.2,5.2c-0.3,0.8-0.2,1.7,0.2,2.4c1.1,1.9,4.6,2.7,7.6,3.4c1.7,0.3,3.3,0.8,4.8,1.5c3.8,2.2,6,7.1,5.7,12.5&#10;&#9;&#9;c-0.3,4.5-2.1,8.6-3.8,12.7l-0.2,0.6c-1.3,3-2.3,5.7-2.1,8.5c0.3,3.8,3,7,5.2,9.1c3.9,3.5,8.6,6,13.4,8.1&#10;&#9;&#9;c-2.9-4.3-2.8-10.1-1.6-14.3s3.4-8.1,5.5-11.8c0.7-1.3,1.5-2.6,2.2-3.9c3.4-6.4,4.6-11.6,3.6-16.1c-1.6-7.8-9.3-12.6-13.7-14.7&#10;&#9;&#9;c-3.6-1.9-7.6-3-11.6-3.2L397,246.4L397,246.4z"/>
	<path class="st1_money-transfer-3-4" d="M392.9,247.1c1.4,2.4,1.9,5.1,1.5,7.8c-0.1,1.8-0.8,3.6-1.9,5c-1.5,1.7-3.7,2.5-5.9,2.3c-1,0-1.9-0.4-2.7-1.1&#10;&#9;&#9;c-0.5-0.6-0.9-1.4-1-2.2C381.7,253.3,385.8,236.1,392.9,247.1L392.9,247.1z"/>
	<path class="st1_money-transfer-3-4" d="M387.1,263c-0.2,0-0.4,0-0.6,0c-1.2,0-2.3-0.5-3.1-1.3c-0.6-0.7-1-1.6-1.1-2.6c-0.9-4.1,0.9-14.4,5-16.1&#10;&#9;&#9;c2-0.8,4.1,0.4,6.2,3.7c1.5,2.5,2,5.4,1.6,8.3c-0.1,2-0.8,3.8-2,5.4C391.5,262.1,389.4,263,387.1,263L387.1,263z M388.4,244.2&#10;&#9;&#9;c-0.2,0-0.5,0-0.7,0.1c-3.1,1.2-5,10.5-4.1,14.5c0.1,0.7,0.4,1.4,0.8,1.9c0.6,0.5,1.4,0.9,2.2,0.9c2,0.2,4-0.6,5.3-2.1&#10;&#9;&#9;c1-1.3,1.6-2.9,1.7-4.6c0.4-2.5-0.1-5.1-1.4-7.4l0,0C391.3,245.9,389.8,244.2,388.4,244.2L388.4,244.2z"/>
	<path class="st0_money-transfer-3-4" d="M355.9,284.3c1.7,2,4.2,3.1,8.4,2.6c3.5-0.5,6.8-1.8,9.6-3.9c11.3-8,17.1-21.6,15-35.3&#10;&#9;&#9;c-2.3-13.5-15.8-27-30.3-21.8c-5,1.8-8.9,5.7-10.7,10.7c-1.9-0.8-4.2,0-5.6,1.5c-3.8,3.8-3.6,7.8-1.6,12.2&#10;&#9;&#9;c3.3,7.4,7.4,14.4,10.4,21.9C352.8,276.7,353.5,281.4,355.9,284.3L355.9,284.3z"/>
	<path class="st1_money-transfer-3-4" d="M362.5,287.7c-2.7,0.2-5.4-0.9-7.1-3l0,0c-1.7-2-2.6-4.9-3.5-7.8c-0.4-1.4-0.9-2.9-1.5-4.4&#10;&#9;&#9;c-1.8-4.4-3.9-8.7-6-12.9c-1.5-2.9-3-5.9-4.4-9c-2.4-5.3-1.9-9.5,1.7-13c1.5-1.6,3.6-2.3,5.7-1.9c2-4.9,5.9-8.7,10.8-10.4&#10;&#9;&#9;c5.7-2.1,12.1-1.4,17.3,1.8c7.4,4.5,12.5,12,14,20.5c2.1,13.9-3.8,27.8-15.2,36c-2.9,2.1-6.3,3.5-9.9,4&#10;&#9;&#9;C363.8,287.7,363.2,287.7,362.5,287.7z M356.5,283.9c1.7,2,4.2,2.8,7.8,2.4c3.4-0.5,6.6-1.8,9.3-3.8c11-7.8,16.7-21.2,14.7-34.6&#10;&#9;&#9;c-1.5-8.1-6.3-15.2-13.3-19.5c-4.8-3-10.8-3.6-16.1-1.7c-4.8,1.7-8.5,5.5-10.2,10.2c-0.1,0.2-0.2,0.3-0.4,0.4&#10;&#9;&#9;c-0.2,0.1-0.4,0.1-0.6,0c-1.7-0.7-3.7,0.2-4.9,1.3c-3.2,3.2-3.6,6.6-1.4,11.5c1.4,3,2.9,6,4.3,8.9c2.1,4.2,4.3,8.6,6.1,13&#10;&#9;&#9;c0.6,1.5,1,3,1.5,4.5C354.1,279.4,354.9,282,356.5,283.9L356.5,283.9L356.5,283.9z"/>
	<path class="st0_money-transfer-3-4" d="M345.1,253.1c0,0-8.8,7.5-8.1,9.8s5.3,2.2,5.3,2.2"/>
	<path class="st1_money-transfer-3-4" d="M342.2,265.8c-0.8,0-5.1-0.1-5.9-2.7s6.1-8.7,8.3-10.5c0.3-0.3,0.7-0.2,1,0.1c0.3,0.3,0.2,0.7-0.1,1l0,0&#10;&#9;&#9;c-4.1,3.5-8.2,7.9-7.9,9c0.5,1.5,3.6,1.7,4.6,1.7c0.4,0,0.7,0.3,0.7,0.7C343,265.5,342.7,265.8,342.2,265.8&#10;&#9;&#9;C342.3,265.8,342.3,265.8,342.2,265.8L342.2,265.8L342.2,265.8z"/>
	<path class="st0_money-transfer-3-4" d="M340.3,303.6c9.9,0.8,26.8-9.2,26.9-9.6c2.1-6.4,4.4-19.5,4.4-19.5s-6.7-1.9-8.4-11s-10-10.5-13.3-22.4&#10;&#9;&#9;c-4.8,2.1-5.6,9.1-6.8,13.5c-1.7,6.2-3.3,12.4-4.7,18.6c-0.9,4,9.2,6.9,11.3,6.3C348.1,283.5,345,291.5,340.3,303.6L340.3,303.6z"/>
	<path class="st1_money-transfer-3-4" d="M341.4,304.4c-0.4,0-0.7,0-1.1,0c-0.2,0-0.4-0.1-0.5-0.3c-0.1-0.2-0.1-0.4-0.1-0.6c6.6-17,7-18,8.9-23&#10;&#9;&#9;c-2.6-0.1-7.2-1.6-9.5-3.7c-1.1-0.8-1.6-2.2-1.4-3.5c1.4-6.2,3-12.5,4.8-18.6c0.2-0.7,0.4-1.5,0.6-2.4c1-4.3,2.3-9.7,6.6-11.6&#10;&#9;&#9;c0.2-0.1,0.4-0.1,0.6,0c0.2,0.1,0.3,0.2,0.4,0.4c1.7,6,4.6,9.2,7.4,12.3c2.6,2.9,5.1,5.6,6,10.2c1.6,8.5,7.6,10.3,7.9,10.4&#10;&#9;&#9;c0.3,0.1,0.6,0.4,0.5,0.8c-0.1,0.5-2.3,13.2-4.4,19.6C367.6,295.3,351.2,304.4,341.4,304.4L341.4,304.4z M341.4,303h0.1&#10;&#9;&#9;c9.1,0,23.5-8,25.1-9.3c1.8-5.6,3.8-16.1,4.2-18.6c-1.8-0.7-6.8-3.4-8.2-11.3c-0.8-4.2-3-6.6-5.6-9.5s-5.7-6.2-7.5-12&#10;&#9;&#9;c-3.1,1.9-4.2,6.5-5.1,10.2c-0.2,0.9-0.4,1.7-0.6,2.4c-1.7,6.1-3.3,12.4-4.7,18.6c-0.1,0.9,0.3,1.7,1,2.2c2.6,2.4,8.2,3.7,9.4,3.3&#10;&#9;&#9;c0.3-0.1,0.5,0,0.7,0.2c0.2,0.2,0.2,0.5,0.1,0.7C348.1,285.7,348.1,285.8,341.4,303L341.4,303z"/>
	<path class="st0_money-transfer-3-4" d="M339.8,268.8c0,0,3.9,4.3,7.9,0.1"/>
	<path class="st1_money-transfer-3-4" d="M343.9,271.5L343.9,271.5c-1.8-0.1-3.4-0.9-4.6-2.2c-0.3-0.3-0.3-0.7,0-1c0,0,0,0,0,0c0.3-0.3,0.7-0.3,1,0&#10;&#9;&#9;c0.9,1,2.2,1.6,3.6,1.7l0,0c1.3-0.1,2.4-0.6,3.2-1.6c0.3-0.3,0.7-0.3,1,0s0.3,0.7,0,1l0,0C347.1,270.6,345.6,271.4,343.9,271.5&#10;&#9;&#9;L343.9,271.5z"/>
	<path class="st1_money-transfer-3-4" d="M349.6,279.6c0,0,5.2,1.2,8.7-1.6c0,0-3,9.3-11.9,9.7L349.6,279.6L349.6,279.6z"/>
	<path class="st1_money-transfer-3-4" d="M346.5,288.4c-0.2,0-0.4-0.1-0.6-0.3c-0.1-0.2-0.2-0.4-0.1-0.7l3.1-8.1c0.1-0.3,0.5-0.5,0.8-0.4&#10;&#9;&#9;c0,0,5,1.1,8.1-1.5c0.3-0.2,0.7-0.2,1,0.1c0.2,0.2,0.2,0.4,0.1,0.7C359,278.3,355.7,288,346.5,288.4L346.5,288.4L346.5,288.4z&#10;&#9;&#9; M350.1,280.4l-2.5,6.5c5.1-0.7,7.9-4.7,9.2-7.2C354.6,280.6,352.3,280.8,350.1,280.4L350.1,280.4z"/>
	<ellipse transform="matrix(0.2084 -0.978 0.978 0.2084 30.2459 538.882)" class="st1_money-transfer-3-4" cx="348" cy="250.8" rx="2.3" ry="0.9"/>
	<path class="st0_money-transfer-3-4" d="M356.7,259.9c0.6-1.5,1.6-2.8,2.9-3.7c0.9-0.9,1.9-1.6,3-2.1c1.1-0.6,2.5-0.6,3.6-0.1c1,0.6,1.6,1.5,1.9,2.6&#10;&#9;&#9;c0.2,1.1,0.2,2.2-0.1,3.3c-1.1,4.8-4.7,8.6-9.5,10l0.4-0.3"/>
	<path class="st1_money-transfer-3-4" d="M358.6,270.5c-0.4,0-0.7-0.3-0.7-0.7c0-0.2,0.1-0.5,0.3-0.6l0.5-0.3c0.2-0.1,0.4-0.1,0.5-0.1&#10;&#9;&#9;c4.1-1.5,7.1-5,8.1-9.2c0.3-1,0.3-2,0.1-3c-0.2-0.9-0.7-1.7-1.5-2.1c-1-0.4-2.1-0.4-3,0.1c-1,0.5-2,1.2-2.9,2&#10;&#9;&#9;c-1.2,0.9-2.1,2-2.7,3.4c-0.1,0.4-0.5,0.6-0.9,0.4c-0.3-0.1-0.5-0.5-0.4-0.8c0.6-1.6,1.7-3,3.1-4.1c1-0.9,2-1.7,3.2-2.3&#10;&#9;&#9;c1.3-0.6,2.9-0.6,4.2,0c1.1,0.7,2,1.8,2.2,3.1c0.2,1.2,0.2,2.4-0.1,3.6c-1.2,5-5,9-10,10.5C358.7,270.4,358.6,270.4,358.6,270.5&#10;&#9;&#9;L358.6,270.5z"/>
	<path class="st2_money-transfer-3-4 targetColor" d="M338.7,296.3c0,0,30-12.1,39.3-1.5s14.5,35,10.6,88l-70.1-2.4C318.5,380.2,324.1,302.8,338.7,296.3z" style="fill: rgb(213, 242, 255);"/>
	<path class="st0_money-transfer-3-4" d="M297.1,312.3c-3.2-2.8-30.1-38.5-30.5-44.3s-2.8-16-4.2-15.3s-2.1,10-2.1,10s-6.6-11.9-9.5-11.9&#10;&#9;&#9;s-9.5,7.8-9.1,11.9s31.2,77.6,45.5,79.7s51.7-14.7,55.1-15.4s15.9-28,0-32C342.4,295,300.4,315.1,297.1,312.3L297.1,312.3z"/>
	<path class="st1_money-transfer-3-4" d="M290,343.2c-0.9,0-1.9-0.1-2.8-0.2c-15-2.2-45.7-75.8-46.1-80.3c-0.2-2.6,2.1-6.4,4.3-8.8&#10;&#9;&#9;c0.8-0.9,3.5-3.8,5.5-3.9l0,0c2.5,0,6.7,6.4,8.9,10.3c0.4-3.5,1-7.7,2.3-8.3c0.3-0.2,0.7-0.1,1,0.1c2,1.1,3.9,11.1,4.2,15.8&#10;&#9;&#9;c0.3,5.4,26.4,40.5,30.2,43.8c2,1.5,24.2-7.7,44.5-17.5c0.1-0.1,0.3-0.1,0.5,0c5.6,1.4,8.5,5.9,8.4,12.8&#10;&#9;&#9;c-0.2,8.7-5.7,20.1-8.4,20.6c-0.7,0.1-3.3,1.1-6.5,2.4C324.7,334.5,302.2,343.2,290,343.2L290,343.2z M250.9,251.5L250.9,251.5&#10;&#9;&#9;c-0.8,0-2.5,1.1-4.5,3.4c-2.5,2.8-4.1,5.9-3.9,7.7c0.4,4.7,31.7,77.1,44.9,79c11,1.6,36-8.2,48.1-12.9c3.6-1.4,6-2.3,6.8-2.5&#10;&#9;&#9;c1.5-0.3,7.1-10.3,7.3-19.3c0.1-6.2-2.2-10-7.1-11.3c-1.6,0.8-11.3,5.4-21.2,9.6c-22.2,9.5-23.9,8.1-24.6,7.5l0,0&#10;&#9;&#9;c-3-2.6-30.4-38.5-30.7-44.8c-0.3-5.4-2.2-13.1-3.3-14.5c-0.6,1.1-1.3,5.4-1.6,9.2c0,0.3-0.2,0.6-0.5,0.6c-0.3,0.1-0.6-0.1-0.8-0.3&#10;&#9;&#9;C256.6,257.5,252.4,251.5,250.9,251.5L250.9,251.5z"/>
	<polygon class="st1_money-transfer-3-4" points="318.5,380.2 316.9,391.1 388.6,391.1 388.6,382.7 &#9;"/>
	<path class="st1_money-transfer-3-4" d="M388.6,391.8h-71.7c-0.4,0-0.7-0.3-0.7-0.7c0,0,0-0.1,0-0.1l1.6-10.9c0-0.4,0.4-0.6,0.7-0.6l70.1,2.4&#10;&#9;&#9;c0.4,0,0.7,0.3,0.7,0.7v8.4C389.3,391.5,389,391.8,388.6,391.8L388.6,391.8L388.6,391.8z M317.7,390.4h70.2v-7l-68.8-2.4&#10;&#9;&#9;L317.7,390.4z"/>
</g>
</svg>